<svg xmlns="http://www.w3.org/2000/svg" viewBox="0 0 96 96" aria-hidden="true">
  <defs>
    <path id="nut-arc" d="M 22 58 A 26 26 0 0 1 74 58" fill="none"/>
  </defs>
  <circle cx="48" cy="48" r="44" fill="#fff" stroke="#1a3d32" stroke-width="2"/>
  <circle cx="48" cy="48" r="40.5" fill="none" stroke="#c9a227" stroke-width="1.25"/>
  <circle cx="48" cy="48" r="36" fill="#f4faf9"/>
  <g fill="#c9a227" opacity="0.4">
    <circle cx="38" cy="40" r="1.8"/><circle cx="46" cy="40" r="1.8"/><circle cx="54" cy="40" r="1.8"/><circle cx="62" cy="40" r="1.8"/>
    <circle cx="38" cy="48" r="1.8"/><circle cx="46" cy="48" r="1.8"/><circle cx="54" cy="48" r="1.8"/><circle cx="62" cy="48" r="1.8"/>
    <circle cx="38" cy="56" r="1.8"/><circle cx="46" cy="56" r="1.8"/><circle cx="54" cy="56" r="1.8"/><circle cx="62" cy="56" r="1.8"/>
  </g>
  <text x="44" y="54" text-anchor="middle" font-family="Albert Sans, system-ui, sans-serif" font-size="22" font-weight="800" fill="#1a3d32">12</text>
  <circle cx="60" cy="56" r="8" fill="#fff" stroke="#c9a227" stroke-width="1.5"/>
  <text x="60" y="59" text-anchor="middle" font-family="Albert Sans, system-ui, sans-serif" font-size="8" font-weight="800" fill="#8a6428">Fe</text>
  <text font-family="Tajawal, Tahoma, sans-serif" font-size="7" font-weight="700" fill="#4a554f">
    <textPath href="#nut-arc" startOffset="50%" text-anchor="middle">عناصر غذائية</textPath>
  </text>
</svg>
