<svg xmlns="http://www.w3.org/2000/svg" viewBox="0 0 96 96" aria-hidden="true">
  <circle cx="48" cy="48" r="44" fill="#fff" stroke="#1a3d32" stroke-width="2"/>
  <circle cx="48" cy="48" r="40.5" fill="none" stroke="#c9a227" stroke-width="1.25"/>
  <circle cx="48" cy="48" r="36" fill="#f4faf9"/>
  <path d="M32 30 H64 A5 5 0 0 1 69 35 V62 A7 7 0 0 1 62 69 H34 A7 7 0 0 1 27 62 V35 A5 5 0 0 1 32 30 Z" fill="#fff" stroke="#1a3d32" stroke-width="1.75" stroke-linejoin="round"/>
  <path d="M32 30 H36 L40 24 H56 L60 30 H64" fill="none" stroke="#c9a227" stroke-width="1.75" stroke-linecap="round" stroke-linejoin="round"/>
  <path d="M48 24 V32" stroke="#c9a227" stroke-width="1.5" stroke-linecap="round"/>
  <path d="M34 38 C38 36 42 36 48 36 C54 36 58 36 62 38" fill="none" stroke="#2d5c4a" stroke-width="1" opacity="0.35"/>
  <circle cx="42" cy="50" r="1.5" fill="#2d5c4a" opacity="0.25"/>
  <circle cx="48" cy="54" r="1.5" fill="#2d5c4a" opacity="0.25"/>
  <circle cx="54" cy="50" r="1.5" fill="#2d5c4a" opacity="0.25"/>
  <text x="48" y="60" text-anchor="middle" font-family="Albert Sans, system-ui, sans-serif" font-size="9" font-weight="800" fill="#1a3d32">1g</text>
  <g transform="translate(62 58)">
    <circle r="11" fill="#fff" stroke="#1a3d32" stroke-width="1.5"/>
    <path d="M-5 0 H5 M0 -5 V5" stroke="#c9a227" stroke-width="1.5" stroke-linecap="round" opacity="0.7"/>
    <path d="M-4 4 L4 -4" stroke="#1a3d32" stroke-width="1.75" stroke-linecap="round"/>
  </g>
</svg>
